<svg width="50" height="41" viewBox="0 0 50 41" fill="none" xmlns="http://www.w3.org/2000/svg">
<path d="M38.3332 36.9214L38.8565 35.6223L38.1299 35.4254L37.4732 35.7508L38.3332 36.9214ZM44.9998 31.4516L43.5965 30.7131L43.1665 31.2656L43.4198 31.8837L44.9998 31.4516ZM48.3331 39.629L47.8098 40.9308C48.1037 41.0106 48.4189 41.0216 48.72 40.9627C49.0211 40.9038 49.2963 40.7772 49.5146 40.5972C49.733 40.4172 49.886 40.1908 49.9563 39.9435C50.0267 39.6961 50.0118 39.4376 49.9131 39.1968L48.3331 39.629ZM37.4732 35.7508C34.2865 37.3234 29.1899 38.2642 24.9999 38.2642V40.9992C29.6166 40.9992 35.3532 39.9872 39.1932 38.0919L37.4732 35.7508ZM24.9999 38.2615C13.0333 38.2615 3.33332 30.3084 3.33332 20.4955H0C0.000875359 23.1884 0.648211 25.8548 1.90505 28.3425C3.16188 30.8302 5.00361 33.0904 7.32506 34.9941C9.64652 36.8978 12.4022 38.4077 15.4349 39.4376C18.4676 40.4674 21.7177 40.9971 24.9999 40.9964V38.2615ZM3.33332 20.4955C3.33597 15.7827 5.62008 11.2664 9.68325 7.93524C13.7464 4.60405 19.2559 2.73347 24.9999 2.73492V7.31e-07C18.3719 -0.00145027 12.0145 2.15727 7.32624 6.00136C2.63795 9.84544 0.00265169 15.0573 0 20.4955H3.33332ZM24.9999 2.73492C36.9665 2.73492 46.6665 10.6881 46.6665 20.4982H49.9998C49.9972 15.06 47.3619 9.84544 42.6736 6.00136C37.9853 2.15727 31.6279 -0.00145027 24.9999 7.31e-07V2.73492ZM46.6665 20.4982C46.6665 24.1384 45.6798 28.0411 43.5965 30.7131L46.4032 32.19C48.9531 28.9218 49.9998 24.442 49.9998 20.4982H46.6665ZM37.8099 38.2205L47.8098 40.9308L48.8565 38.3326L38.8565 35.625L37.8099 38.2205ZM49.9131 39.1968L46.5798 31.0194L43.4198 31.8837L46.7532 40.0638L49.9131 39.1968Z" fill="white"/>
<path d="M16 30V17.25C16 16.1228 16.5268 15.0418 17.4645 14.2448C18.4021 13.4478 19.6739 13 21 13C22.3261 13 23.5979 13.4478 24.5355 14.2448C25.4732 15.0418 26 16.1228 26 17.25V30M16 23.625H26M36 13V30" stroke="white" stroke-width="2" stroke-linecap="round" stroke-linejoin="round"/>
</svg>
