<svg width="21" height="21" viewBox="0 0 21 21" fill="none" xmlns="http://www.w3.org/2000/svg">
<path d="M10.4985 5.68272C9.54603 5.68272 8.61494 5.96516 7.82299 6.49433C7.03104 7.02349 6.4138 7.77561 6.0493 8.65558C5.68481 9.53555 5.58944 10.5038 5.77526 11.438C5.96107 12.3722 6.41973 13.2303 7.09323 13.9038C7.76673 14.5773 8.62482 15.0359 9.55898 15.2217C10.4932 15.4076 11.4614 15.3122 12.3414 14.9477C13.2214 14.5832 13.9735 13.9659 14.5027 13.174C15.0318 12.382 15.3143 11.451 15.3143 10.4985C15.3129 9.22168 14.8051 7.99754 13.9023 7.0947C12.9995 6.19185 11.7753 5.68405 10.4985 5.68272ZM10.4985 13.709C9.86351 13.709 9.24279 13.5207 8.71483 13.1679C8.18686 12.8152 7.77536 12.3138 7.53236 11.7271C7.28937 11.1405 7.22579 10.4949 7.34967 9.87215C7.47355 9.24938 7.77932 8.67732 8.22832 8.22832C8.67732 7.77932 9.24938 7.47355 9.87215 7.34967C10.4949 7.22579 11.1405 7.28937 11.7271 7.53236C12.3138 7.77536 12.8152 8.18686 13.1679 8.71483C13.5207 9.24279 13.709 9.86351 13.709 10.4985C13.709 11.35 13.3708 12.1666 12.7687 12.7687C12.1666 13.3708 11.35 13.709 10.4985 13.709ZM19.3274 10.7152C19.3314 10.5707 19.3314 10.4263 19.3274 10.2818L20.8243 8.41166C20.9028 8.31347 20.9571 8.19822 20.9829 8.07519C21.0087 7.95215 21.0052 7.82479 20.9728 7.70334C20.7274 6.78092 20.3603 5.89527 19.8812 5.06971C19.8185 4.96168 19.7314 4.86978 19.6269 4.80132C19.5224 4.73287 19.4034 4.68976 19.2793 4.67542L16.8995 4.41055C16.8005 4.30621 16.7001 4.20588 16.5985 4.10957L16.3176 1.72375C16.3031 1.59956 16.2598 1.48046 16.1912 1.37595C16.1226 1.27143 16.0305 1.1844 15.9223 1.12178C15.0964 0.643563 14.2108 0.276849 13.2886 0.0312104C13.1671 -0.00109853 13.0397 -0.00440306 12.9167 0.0215631C12.7936 0.0475292 12.6784 0.10204 12.5803 0.1807L10.7152 1.66958H10.2818L8.41166 0.175684C8.31347 0.0971949 8.19822 0.0428665 8.07519 0.0170753C7.95215 -0.00871595 7.82479 -0.00524898 7.70334 0.0271971C6.78107 0.27303 5.89547 0.640088 5.06971 1.11877C4.96168 1.1815 4.86978 1.26859 4.80132 1.37309C4.73287 1.4776 4.68976 1.59664 4.67542 1.72074L4.41055 4.10455C4.30621 4.20421 4.20588 4.30454 4.10957 4.40554L1.72375 4.67944C1.59956 4.69388 1.48046 4.73715 1.37595 4.80578C1.27143 4.87441 1.1844 4.96651 1.12178 5.07473C0.643563 5.9006 0.276849 6.78618 0.0312104 7.70836C-0.00109853 7.82988 -0.00440306 7.95729 0.0215631 8.08033C0.0475292 8.20336 0.10204 8.31857 0.1807 8.41668L1.66958 10.2818V10.7152L0.175684 12.5853C0.0971949 12.6835 0.0428665 12.7988 0.0170753 12.9218C-0.00871595 13.0448 -0.00524898 13.1722 0.0271971 13.2937C0.27259 14.2161 0.639672 15.1017 1.11877 15.9273C1.1815 16.0353 1.26859 16.1272 1.37309 16.1957C1.4776 16.2641 1.59664 16.3072 1.72074 16.3216L4.10054 16.5864C4.2002 16.6908 4.30053 16.7911 4.40153 16.8874L4.67944 19.2732C4.69388 19.3974 4.73715 19.5165 4.80578 19.621C4.87441 19.7256 4.96651 19.8126 5.07473 19.8752C5.9006 20.3534 6.78618 20.7201 7.70836 20.9658C7.82988 20.9981 7.95729 21.0014 8.08033 20.9754C8.20336 20.9495 8.31857 20.895 8.41668 20.8163L10.2818 19.3274C10.4263 19.3314 10.5707 19.3314 10.7152 19.3274L12.5853 20.8243C12.6835 20.9028 12.7988 20.9571 12.9218 20.9829C13.0448 21.0087 13.1722 21.0052 13.2937 20.9728C14.2161 20.7274 15.1017 20.3603 15.9273 19.8812C16.0353 19.8185 16.1272 19.7314 16.1957 19.6269C16.2641 19.5224 16.3072 19.4034 16.3216 19.2793L16.5864 16.8995C16.6908 16.8005 16.7911 16.7001 16.8874 16.5985L19.2732 16.3176C19.3974 16.3031 19.5165 16.2598 19.621 16.1912C19.7256 16.1226 19.8126 16.0305 19.8752 15.9223C20.3534 15.0964 20.7201 14.2108 20.9658 13.2886C20.9981 13.1671 21.0014 13.0397 20.9754 12.9167C20.9495 12.7936 20.895 12.6784 20.8163 12.5803L19.3274 10.7152ZM17.7121 10.0631C17.7292 10.3531 17.7292 10.6439 17.7121 10.9339C17.7002 11.1325 17.7624 11.3284 17.8867 11.4837L19.3104 13.2625C19.147 13.7817 18.9378 14.2853 18.6853 14.7675L16.4179 15.0243C16.2204 15.0462 16.0381 15.1406 15.9062 15.2892C15.7131 15.5064 15.5074 15.7121 15.2902 15.9052C15.1416 16.0371 15.0472 16.2194 15.0253 16.4169L14.7735 18.6823C14.2914 18.9349 13.7878 19.1441 13.2686 19.3073L11.4887 17.8837C11.3463 17.7699 11.1694 17.708 10.9871 17.7081H10.9389C10.6489 17.7252 10.3581 17.7252 10.0681 17.7081C9.86952 17.6962 9.67359 17.7584 9.51828 17.8827L7.73444 19.3073C7.21527 19.144 6.71165 18.9348 6.22951 18.6823L5.97267 16.4179C5.95075 16.2204 5.85638 16.0381 5.7078 15.9062C5.4906 15.7131 5.28491 15.5074 5.09179 15.2902C4.95989 15.1416 4.77757 15.0472 4.58011 15.0253L2.31469 14.7725C2.06205 14.2904 1.85288 13.7868 1.68964 13.2676L3.11331 11.4877C3.23762 11.3324 3.29983 11.1365 3.28788 10.9379C3.27082 10.6479 3.27082 10.3571 3.28788 10.0671C3.29983 9.86851 3.23762 9.67258 3.11331 9.51728L1.68964 7.73444C1.853 7.21527 2.06217 6.71165 2.31469 6.22951L4.57911 5.97267C4.77657 5.95075 4.95888 5.85638 5.09078 5.7078C5.28391 5.4906 5.4896 5.28491 5.7068 5.09179C5.85597 4.9598 5.95073 4.77707 5.97267 4.57911L6.2245 2.31469C6.70658 2.06205 7.21021 1.85288 7.72943 1.68964L9.50925 3.11331C9.66456 3.23762 9.86049 3.29983 10.0591 3.28788C10.3491 3.27082 10.6399 3.27082 10.9299 3.28788C11.1285 3.29983 11.3244 3.23762 11.4797 3.11331L13.2625 1.68964C13.7817 1.853 14.2853 2.06217 14.7675 2.31469L15.0243 4.57911C15.0462 4.77657 15.1406 4.95888 15.2892 5.09078C15.5064 5.28391 15.7121 5.4896 15.9052 5.7068C16.0371 5.85537 16.2194 5.94975 16.4169 5.97167L18.6823 6.22349C18.9349 6.70557 19.1441 7.20921 19.3073 7.72842L17.8837 9.50825C17.7582 9.66486 17.6959 9.86281 17.7091 10.0631H17.7121Z" fill="white"/>
</svg>
