<svg width="51" height="50" viewBox="0 0 51 50" fill="none" xmlns="http://www.w3.org/2000/svg">
<path d="M5.1875 18.75V32.8125C5.1875 33.2269 5.35212 33.6243 5.64515 33.9174C5.93817 34.2104 6.3356 34.375 6.75 34.375H22.375C22.7894 34.375 23.1868 34.5396 23.4799 34.8326C23.7729 35.1257 23.9375 35.5231 23.9375 35.9375C23.9375 36.3519 23.7729 36.7493 23.4799 37.0424C23.1868 37.3354 22.7894 37.5 22.375 37.5H19.25V40.625H22.375C22.7894 40.625 23.1868 40.7896 23.4799 41.0826C23.7729 41.3757 23.9375 41.7731 23.9375 42.1875C23.9375 42.6019 23.7729 42.9993 23.4799 43.2924C23.1868 43.5854 22.7894 43.75 22.375 43.75H13C12.5856 43.75 12.1882 43.5854 11.8951 43.2924C11.6021 42.9993 11.4375 42.6019 11.4375 42.1875C11.4375 41.7731 11.6021 41.3757 11.8951 41.0826C12.1882 40.7896 12.5856 40.625 13 40.625H16.125V37.5H6.75C5.5068 37.5 4.31451 37.0061 3.43544 36.1271C2.55636 35.248 2.0625 34.0557 2.0625 32.8125V18.75C2.0625 17.5068 2.55636 16.3145 3.43544 15.4354C4.31451 14.5564 5.5068 14.0625 6.75 14.0625H22.375C22.7894 14.0625 23.1868 14.2271 23.4799 14.5201C23.7729 14.8132 23.9375 15.2106 23.9375 15.625C23.9375 16.0394 23.7729 16.4368 23.4799 16.7299C23.1868 17.0229 22.7894 17.1875 22.375 17.1875H6.75C6.3356 17.1875 5.93817 17.3521 5.64515 17.6451C5.35212 17.9382 5.1875 18.3356 5.1875 18.75ZM41.125 12.5H34.875C34.4606 12.5 34.0632 12.6646 33.7701 12.9576C33.4771 13.2507 33.3125 13.6481 33.3125 14.0625C33.3125 14.4769 33.4771 14.8743 33.7701 15.1674C34.0632 15.4604 34.4606 15.625 34.875 15.625H41.125C41.5394 15.625 41.9368 15.4604 42.2299 15.1674C42.5229 14.8743 42.6875 14.4769 42.6875 14.0625C42.6875 13.6481 42.5229 13.2507 42.2299 12.9576C41.9368 12.6646 41.5394 12.5 41.125 12.5ZM41.125 18.75H34.875C34.4606 18.75 34.0632 18.9146 33.7701 19.2076C33.4771 19.5007 33.3125 19.8981 33.3125 20.3125C33.3125 20.7269 33.4771 21.1243 33.7701 21.4174C34.0632 21.7104 34.4606 21.875 34.875 21.875H41.125C41.5394 21.875 41.9368 21.7104 42.2299 21.4174C42.5229 21.1243 42.6875 20.7269 42.6875 20.3125C42.6875 19.8981 42.5229 19.5007 42.2299 19.2076C41.9368 18.9146 41.5394 18.75 41.125 18.75ZM48.9375 9.375V40.625C48.9375 41.4538 48.6083 42.2487 48.0222 42.8347C47.4362 43.4208 46.6413 43.75 45.8125 43.75H30.1875C29.3587 43.75 28.5638 43.4208 27.9778 42.8347C27.3917 42.2487 27.0625 41.4538 27.0625 40.625V9.375C27.0625 8.5462 27.3917 7.75134 27.9778 7.16529C28.5638 6.57924 29.3587 6.25 30.1875 6.25H45.8125C46.6413 6.25 47.4362 6.57924 48.0222 7.16529C48.6083 7.75134 48.9375 8.5462 48.9375 9.375ZM45.8125 40.625V9.375H30.1875V40.625H45.8125ZM38 32.8125C37.5364 32.8125 37.0833 32.95 36.6979 33.2075C36.3125 33.465 36.0121 33.8311 35.8347 34.2593C35.6573 34.6876 35.6109 35.1588 35.7013 35.6135C35.7917 36.0681 36.0149 36.4858 36.3427 36.8135C36.6705 37.1413 37.0881 37.3645 37.5428 37.455C37.9974 37.5454 38.4686 37.499 38.8969 37.3216C39.3252 37.1442 39.6912 36.8438 39.9488 36.4584C40.2063 36.0729 40.3438 35.6198 40.3438 35.1562C40.3438 34.5346 40.0968 33.9385 39.6573 33.499C39.2177 33.0594 38.6216 32.8125 38 32.8125Z" fill="#6DB5C5"/>
</svg>
