<svg width="18" height="17" viewBox="0 0 18 17" fill="none" xmlns="http://www.w3.org/2000/svg">
<path d="M16.6 16.575L10.3 10.7738C9.8 11.1421 9.225 11.4337 8.575 11.6485C7.925 11.8634 7.23333 11.9708 6.5 11.9708C4.68333 11.9708 3.146 11.3913 1.888 10.2323C0.63 9.07328 0.000667196 7.65765 5.29101e-07 5.98542C-0.000666138 4.31318 0.628667 2.89756 1.888 1.73853C3.14733 0.579511 4.68467 0 6.5 0C8.31533 0 9.853 0.579511 11.113 1.73853C12.373 2.89756 13.002 4.31318 13 5.98542C13 6.66069 12.8833 7.2976 12.65 7.89615C12.4167 8.49469 12.1 9.02417 11.7 9.48458L18 15.2858L16.6 16.575ZM6.5 10.1292C7.75 10.1292 8.81267 9.72646 9.688 8.92103C10.5633 8.11561 11.0007 7.13707 11 5.98542C10.9993 4.83376 10.562 3.85553 9.688 3.05072C8.814 2.24591 7.75133 1.84289 6.5 1.84167C5.24867 1.84044 4.18633 2.24346 3.313 3.05072C2.43967 3.85799 2.002 4.83622 2 5.98542C1.998 7.13462 2.43567 8.11316 3.313 8.92103C4.19033 9.72891 5.25267 10.1316 6.5 10.1292Z" fill="white"/>
</svg>
