<svg width="41" height="41" viewBox="0 0 41 41" fill="none" xmlns="http://www.w3.org/2000/svg">
<path d="M8.5752 25.8946C8.5752 28.2813 6.65881 30.2106 4.28744 30.2106C3.72423 30.2111 3.16644 30.0999 2.646 29.8832C2.12556 29.6664 1.65269 29.3486 1.25445 28.9477C0.856213 28.5468 0.54043 28.0708 0.325175 27.5469C0.109921 27.023 -0.0005784 26.4615 2.27675e-06 25.8946C2.27675e-06 23.508 1.91639 21.579 4.28744 21.579H8.5752V25.8946ZM10.7189 25.8946C10.7189 23.508 12.6353 21.579 15.0064 21.579C17.3774 21.579 19.2941 23.508 19.2941 25.8946V36.6841C19.2941 39.0707 17.3777 41 15.0064 41C14.4432 41.0005 13.8854 40.8892 13.365 40.6725C12.8446 40.4558 12.3718 40.1379 11.9736 39.737C11.5754 39.3361 11.2596 38.8601 11.0444 38.3363C10.8291 37.8124 10.7187 37.251 10.7192 36.6841L10.7189 25.8946Z" fill="white"/>
<path d="M15.0136 8.61711C14.4513 8.61761 13.8945 8.5065 13.375 8.29013C12.8554 8.07377 12.3834 7.7564 11.9859 7.35619C11.5883 6.95598 11.2731 6.48079 11.0582 5.95781C10.8434 5.43483 10.7331 4.87433 10.7336 4.3084C10.7333 1.92576 12.6465 0 15.0136 0C17.3806 0 19.2941 1.92576 19.2941 4.3084V8.61711H15.0136ZM15.0136 10.8039C17.3806 10.8039 19.2941 12.7297 19.2941 15.1123C19.2941 17.495 17.3809 19.421 15.0136 19.421H4.28024C3.71797 19.4216 3.16112 19.3105 2.64155 19.0942C2.12199 18.8778 1.64991 18.5605 1.25234 18.1602C0.854775 17.76 0.539522 17.2848 0.324629 16.7618C0.109736 16.2388 -0.000577428 15.6783 2.27293e-06 15.1123C2.27293e-06 12.7297 1.91317 10.8043 4.28024 10.8043L15.0136 10.8039Z" fill="white"/>
<path d="M32.425 15.1123C32.425 12.7297 34.3414 10.8039 36.7124 10.8039C39.0835 10.8039 41.0002 12.7297 41.0002 15.1123C41.0002 17.495 39.0838 19.421 36.7124 19.421H32.425V15.1123ZM30.2809 15.1123C30.2809 17.495 28.3649 19.421 25.9935 19.421C25.4303 19.4216 24.8725 19.3105 24.3521 19.0942C23.8316 18.8778 23.3587 18.5605 22.9605 18.1602C22.5623 17.76 22.2465 17.2848 22.0312 16.7618C21.816 16.2388 21.7055 15.6783 21.7061 15.1123V4.3084C21.7061 1.92576 23.6224 0 25.9935 0C28.3645 0 30.2813 1.92576 30.2813 4.3084L30.2809 15.1123Z" fill="white"/>
<path d="M25.9863 32.3684C28.3534 32.3684 30.2668 34.2974 30.2668 36.6841C30.2668 39.0707 28.3537 41 25.9863 41C25.424 41.0006 24.8672 40.8893 24.3476 40.6726C23.828 40.4559 23.356 40.138 22.9584 39.7371C22.5608 39.3362 22.2456 38.8602 22.0307 38.3363C21.8158 37.8124 21.7055 37.251 21.7061 36.6841V32.3684H25.9863ZM25.9863 30.2103C25.4241 30.2108 24.8672 30.0996 24.3477 29.8829C23.8281 29.6662 23.3561 29.3483 22.9585 28.9475C22.5609 28.5466 22.2457 28.0706 22.0308 27.5468C21.8159 27.023 21.7055 26.4615 21.7061 25.8946C21.7061 23.508 23.6192 21.579 25.9863 21.579H36.7199C39.087 21.579 41.0002 23.508 41.0002 25.8946C41.0002 28.2813 39.087 30.2106 36.7196 30.2106L25.9863 30.2103Z" fill="white"/>
</svg>
