<svg width="19" height="20" viewBox="0 0 19 20" fill="none" xmlns="http://www.w3.org/2000/svg">
<path d="M9.5 0.75C10.7598 0.75 11.968 1.23793 12.8588 2.10646C13.7496 2.97499 14.25 4.15297 14.25 5.38125C14.25 6.60953 13.7496 7.78751 12.8588 8.65604C11.968 9.52457 10.7598 10.0125 9.5 10.0125C8.24022 10.0125 7.03204 9.52457 6.14124 8.65604C5.25044 7.78751 4.75 6.60953 4.75 5.38125C4.75 4.15297 5.25044 2.97499 6.14124 2.10646C7.03204 1.23793 8.24022 0.75 9.5 0.75ZM9.5 12.3281C14.7487 12.3281 19 14.4006 19 16.9594V19.275H0V16.9594C0 14.4006 4.25125 12.3281 9.5 12.3281Z" fill="white"/>
</svg>
