<svg width="51" height="50" viewBox="0 0 51 50" fill="none" xmlns="http://www.w3.org/2000/svg">
<path d="M45.6016 41.4062C42.627 36.2636 38.043 32.5761 32.6934 30.8281C35.3395 29.2528 37.3954 26.8524 38.5453 23.9956C39.6953 21.1388 39.8756 17.9835 39.0587 15.0143C38.2418 12.0451 36.4728 9.4261 34.0234 7.55956C31.574 5.69302 28.5796 4.68213 25.5 4.68213C22.4205 4.68213 19.426 5.69302 16.9766 7.55956C14.5272 9.4261 12.7582 12.0451 11.9413 15.0143C11.1244 17.9835 11.3048 21.1388 12.4547 23.9956C13.6046 26.8524 15.6605 29.2528 18.3067 30.8281C12.957 32.5742 8.37306 36.2617 5.39845 41.4062C5.28936 41.5841 5.21701 41.782 5.18565 41.9883C5.1543 42.1945 5.16457 42.405 5.21588 42.6073C5.26718 42.8095 5.35847 42.9994 5.48437 43.1658C5.61026 43.3322 5.76821 43.4717 5.94889 43.5761C6.12956 43.6804 6.32932 43.7476 6.53635 43.7735C6.74339 43.7994 6.95352 43.7836 7.15435 43.727C7.35518 43.6703 7.54263 43.5741 7.70565 43.4439C7.86867 43.3136 8.00396 43.1521 8.10353 42.9687C11.7832 36.6093 18.2871 32.8124 25.5 32.8124C32.7129 32.8124 39.2168 36.6093 42.8965 42.9687C42.9961 43.1521 43.1314 43.3136 43.2944 43.4439C43.4574 43.5741 43.6448 43.6703 43.8457 43.727C44.0465 43.7836 44.2566 43.7994 44.4637 43.7735C44.6707 43.7476 44.8705 43.6804 45.0511 43.5761C45.2318 43.4717 45.3898 43.3322 45.5157 43.1658C45.6415 42.9994 45.7328 42.8095 45.7841 42.6073C45.8354 42.405 45.8457 42.1945 45.8144 41.9883C45.783 41.782 45.7107 41.5841 45.6016 41.4062ZM14.5625 18.7499C14.5625 16.5867 15.204 14.4721 16.4058 12.6734C17.6076 10.8747 19.3158 9.47284 21.3144 8.64501C23.313 7.81718 25.5121 7.60058 27.6338 8.0226C29.7555 8.44463 31.7044 9.48632 33.234 11.016C34.7636 12.5456 35.8053 14.4945 36.2274 16.6161C36.6494 18.7378 36.4328 20.937 35.6049 22.9355C34.7771 24.9341 33.3752 26.6423 31.5766 27.8441C29.7779 29.046 27.6632 29.6874 25.5 29.6874C22.6002 29.6843 19.82 28.531 17.7695 26.4805C15.719 24.43 14.5656 21.6498 14.5625 18.7499Z" fill="#6DB5C5"/>
</svg>
