<svg width="24" height="42" viewBox="0 0 24 42" fill="none" xmlns="http://www.w3.org/2000/svg">
<path d="M22.8266 38.5123C23.0008 38.6865 23.139 38.8933 23.2332 39.1209C23.3275 39.3485 23.3761 39.5925 23.3761 39.8388C23.3761 40.0852 23.3275 40.3292 23.2332 40.5568C23.139 40.7844 23.0008 40.9912 22.8266 41.1654C22.6524 41.3396 22.4456 41.4778 22.2179 41.5721C21.9903 41.6664 21.7464 41.7149 21.5 41.7149C21.2536 41.7149 21.0097 41.6664 20.7821 41.5721C20.5545 41.4778 20.3477 41.3396 20.1734 41.1654L1.42345 22.4154C1.24912 22.2413 1.11082 22.0345 1.01646 21.8069C0.922103 21.5792 0.873535 21.3352 0.873535 21.0888C0.873535 20.8424 0.922103 20.5984 1.01646 20.3708C1.11082 20.1432 1.24912 19.9364 1.42345 19.7623L20.1734 1.01228C20.5253 0.660453 21.0025 0.462799 21.5 0.462799C21.9976 0.462799 22.4747 0.660453 22.8266 1.01228C23.1784 1.36411 23.3761 1.84128 23.3761 2.33884C23.3761 2.8364 23.1784 3.31358 22.8266 3.6654L5.40079 21.0888L22.8266 38.5123Z" fill="white"/>
</svg>
