<svg width="24" height="42" viewBox="0 0 24 42" fill="none" xmlns="http://www.w3.org/2000/svg">
<path d="M22.5766 22.4154L3.82657 41.1654C3.65236 41.3396 3.44555 41.4778 3.21794 41.5721C2.99032 41.6664 2.74637 41.7149 2.5 41.7149C2.25364 41.7149 2.00969 41.6664 1.78207 41.5721C1.55446 41.4778 1.34765 41.3396 1.17344 41.1654C0.999235 40.9912 0.861047 40.7844 0.766767 40.5568C0.672487 40.3292 0.623962 40.0852 0.623962 39.8388C0.623962 39.5925 0.672487 39.3485 0.766767 39.1209C0.861047 38.8933 0.999235 38.6865 1.17344 38.5123L18.5992 21.0888L1.17344 3.6654C0.821615 3.31358 0.623962 2.8364 0.623962 2.33884C0.623962 1.84128 0.821615 1.36411 1.17344 1.01228C1.52527 0.660453 2.00245 0.462799 2.5 0.462799C2.99756 0.462799 3.47474 0.660453 3.82657 1.01228L22.5766 19.7623C22.7509 19.9364 22.8892 20.1432 22.9836 20.3708C23.0779 20.5984 23.1265 20.8424 23.1265 21.0888C23.1265 21.3352 23.0779 21.5792 22.9836 21.8069C22.8892 22.0345 22.7509 22.2413 22.5766 22.4154Z" fill="white"/>
</svg>
