<svg width="51" height="50" viewBox="0 0 51 50" fill="none" xmlns="http://www.w3.org/2000/svg">
<path d="M45.8125 40.625C45.8125 41.0394 45.6479 41.4368 45.3549 41.7299C45.0618 42.0229 44.6644 42.1875 44.25 42.1875H6.75C6.3356 42.1875 5.93817 42.0229 5.64515 41.7299C5.35212 41.4368 5.1875 41.0394 5.1875 40.625V9.375C5.1875 8.9606 5.35212 8.56317 5.64515 8.27015C5.93817 7.97712 6.3356 7.8125 6.75 7.8125C7.1644 7.8125 7.56183 7.97712 7.85485 8.27015C8.14788 8.56317 8.3125 8.9606 8.3125 9.375V30.6035L18.1445 20.7695C18.2896 20.6243 18.462 20.509 18.6517 20.4304C18.8413 20.3517 19.0447 20.3113 19.25 20.3113C19.4553 20.3113 19.6587 20.3517 19.8483 20.4304C20.038 20.509 20.2104 20.6243 20.3555 20.7695L25.5 25.916L35.791 15.625H31.75C31.3356 15.625 30.9382 15.4604 30.6451 15.1674C30.3521 14.8743 30.1875 14.4769 30.1875 14.0625C30.1875 13.6481 30.3521 13.2507 30.6451 12.9576C30.9382 12.6646 31.3356 12.5 31.75 12.5H39.5625C39.9769 12.5 40.3743 12.6646 40.6674 12.9576C40.9604 13.2507 41.125 13.6481 41.125 14.0625V21.875C41.125 22.2894 40.9604 22.6868 40.6674 22.9799C40.3743 23.2729 39.9769 23.4375 39.5625 23.4375C39.1481 23.4375 38.7507 23.2729 38.4576 22.9799C38.1646 22.6868 38 22.2894 38 21.875V17.834L26.6055 29.2305C26.4604 29.3757 26.288 29.491 26.0983 29.5696C25.9087 29.6483 25.7053 29.6887 25.5 29.6887C25.2947 29.6887 25.0913 29.6483 24.9017 29.5696C24.712 29.491 24.5396 29.3757 24.3945 29.2305L19.25 24.084L8.3125 35.0215V39.0625H44.25C44.6644 39.0625 45.0618 39.2271 45.3549 39.5201C45.6479 39.8132 45.8125 40.2106 45.8125 40.625Z" fill="#6DB5C5"/>
</svg>
