<svg width="41" height="36" viewBox="0 0 41 36" fill="none" xmlns="http://www.w3.org/2000/svg">
<path d="M40.8125 33.625C40.8125 34.0394 40.6479 34.4368 40.3549 34.7299C40.0618 35.0229 39.6644 35.1875 39.25 35.1875H1.75C1.3356 35.1875 0.938171 35.0229 0.645146 34.7299C0.35212 34.4368 0.1875 34.0394 0.1875 33.625V2.375C0.1875 1.9606 0.35212 1.56317 0.645146 1.27015C0.938171 0.97712 1.3356 0.8125 1.75 0.8125C2.1644 0.8125 2.56183 0.97712 2.85485 1.27015C3.14788 1.56317 3.3125 1.9606 3.3125 2.375V23.6035L13.1445 13.7695C13.2896 13.6243 13.462 13.509 13.6517 13.4304C13.8413 13.3517 14.0447 13.3113 14.25 13.3113C14.4553 13.3113 14.6587 13.3517 14.8483 13.4304C15.038 13.509 15.2104 13.6243 15.3555 13.7695L20.5 18.916L30.791 8.625H26.75C26.3356 8.625 25.9382 8.46038 25.6451 8.16735C25.3521 7.87433 25.1875 7.4769 25.1875 7.0625C25.1875 6.6481 25.3521 6.25067 25.6451 5.95765C25.9382 5.66462 26.3356 5.5 26.75 5.5H34.5625C34.9769 5.5 35.3743 5.66462 35.6674 5.95765C35.9604 6.25067 36.125 6.6481 36.125 7.0625V14.875C36.125 15.2894 35.9604 15.6868 35.6674 15.9799C35.3743 16.2729 34.9769 16.4375 34.5625 16.4375C34.1481 16.4375 33.7507 16.2729 33.4576 15.9799C33.1646 15.6868 33 15.2894 33 14.875V10.834L21.6055 22.2305C21.4604 22.3757 21.288 22.491 21.0983 22.5696C20.9087 22.6483 20.7053 22.6887 20.5 22.6887C20.2947 22.6887 20.0913 22.6483 19.9017 22.5696C19.712 22.491 19.5396 22.3757 19.3945 22.2305L14.25 17.084L3.3125 28.0215V32.0625H39.25C39.6644 32.0625 40.0618 32.2271 40.3549 32.5201C40.6479 32.8132 40.8125 33.2106 40.8125 33.625Z" fill="#6DB5C5"/>
</svg>
